<svg width="24" height="23" viewBox="0 0 24 23" fill="none" xmlns="http://www.w3.org/2000/svg">
<path d="M10.3908 0L8.91062 3.41272C8.61459 3.49875 8.34816 3.64214 8.08173 3.78553L4.55892 2.35162L2.42748 4.41646L3.90765 7.82917C3.75963 8.11596 3.64122 8.34538 3.5228 8.63217L0 10.0661V12.9339L3.5228 14.3678C3.64122 14.6546 3.75963 14.884 3.90765 15.1708L2.42748 18.5835L4.55892 20.6484L8.08173 19.2145C8.34816 19.3292 8.61459 19.4726 8.91062 19.5873L10.3908 23H13.3511L14.8313 19.5873C15.0977 19.4726 15.3938 19.3578 15.6602 19.2145L19.183 20.6484L21.3144 18.5835L19.8343 15.1708C19.9527 14.9127 20.1007 14.6259 20.2191 14.3678L23.7419 12.9339V10.0661L20.2191 8.63217C20.1303 8.37406 19.9823 8.08728 19.8343 7.82917L21.3144 4.41646L19.183 2.35162L15.6602 3.78553C15.3938 3.67082 15.0977 3.52743 14.8313 3.41272L13.3511 0L10.3908 0ZM11.871 7.16957C14.328 7.16957 16.3115 9.09102 16.3115 11.4713C16.3115 13.8516 14.328 15.7731 11.871 15.7731C9.41388 15.7731 7.43045 13.8516 7.43045 11.4713C7.43045 9.09102 9.41388 7.16957 11.871 7.16957Z" fill="#EBFF00"/>
</svg>
