<svg width="20" height="21" viewBox="0 0 20 21" fill="none" xmlns="http://www.w3.org/2000/svg">
<path d="M13.3426 1.52717C12.4305 0.542339 11.1564 0 9.75017 0C8.33644 0 7.05817 0.539057 6.15021 1.5178C5.2324 2.50732 4.78522 3.85215 4.89022 5.30432C5.09834 8.1693 7.27848 10.4999 9.75017 10.4999C12.2219 10.4999 14.3983 8.16976 14.6097 5.30526C14.7161 3.86621 14.2661 2.52419 13.3426 1.52717Z" fill="black" fill-opacity="0.52"/>
<path d="M18.0001 20.9999H1.50025C1.28429 21.0027 1.07041 20.9573 0.87418 20.867C0.677953 20.7768 0.504311 20.6439 0.36589 20.4781C0.061205 20.1139 -0.0616063 19.6166 0.0293303 19.1136C0.424951 16.919 1.65963 15.0754 3.60023 13.7812C5.32428 12.6323 7.50816 11.9999 9.75017 11.9999C11.9922 11.9999 14.1761 12.6328 15.9001 13.7812C17.8407 15.0749 19.0754 16.9185 19.471 19.1132C19.562 19.6161 19.4391 20.1135 19.1345 20.4777C18.9961 20.6436 18.8225 20.7765 18.6262 20.8668C18.43 20.9572 18.2161 21.0026 18.0001 20.9999Z" fill="black" fill-opacity="0.52"/>
</svg>
