<svg width="35" height="34" viewBox="0 0 35 34" fill="none" xmlns="http://www.w3.org/2000/svg">
<path d="M15.318 0L13.1359 5.03098C12.6995 5.15781 12.3067 5.36919 11.914 5.58058L6.7207 3.46672L3.57855 6.51068L5.7606 11.5417C5.54239 11.9644 5.36783 12.3026 5.19327 12.7254L0 14.8393V19.067L5.19327 21.1808C5.36783 21.6036 5.54239 21.9418 5.7606 22.3646L3.57855 27.3956L6.7207 30.4395L11.914 28.3257C12.3067 28.4948 12.6995 28.7062 13.1359 28.8753L15.318 33.9062H19.682L21.8641 28.8753C22.2569 28.7062 22.6933 28.5371 23.086 28.3257L28.2793 30.4395L31.4214 27.3956L29.2394 22.3646C29.414 21.9841 29.6322 21.5613 29.8067 21.1808L35 19.067V14.8393L29.8067 12.7254C29.6758 12.3449 29.4576 11.9221 29.2394 11.5417L31.4214 6.51068L28.2793 3.46672L23.086 5.58058C22.6933 5.41147 22.2569 5.20009 21.8641 5.03098L19.682 0L15.318 0ZM17.5 10.5693C21.1222 10.5693 24.0461 13.4018 24.0461 16.9108C24.0461 20.4198 21.1222 23.2524 17.5 23.2524C13.8778 23.2524 10.9539 20.4198 10.9539 16.9108C10.9539 13.4018 13.8778 10.5693 17.5 10.5693Z" fill="white"/>
</svg>
